<?xml version="1.0" standalone="no"?>
<!DOCTYPE svg PUBLIC "-//W3C//DTD SVG 20010904//EN"
 "http://www.w3.org/TR/2001/REC-SVG-20010904/DTD/svg10.dtd">
<svg version="1.0" xmlns="http://www.w3.org/2000/svg"
 width="500.000000pt" height="500.000000pt" viewBox="0 0 500.000000 500.000000"
 preserveAspectRatio="xMidYMid meet">
<metadata>
Created by potrace 1.14, written by Peter Selinger 2001-2017
</metadata>
<g transform="translate(0.000000,500.000000) scale(0.100000,-0.100000)"
fill="#000000" stroke="none">
<path d="M0 2500 l0 -2500 2500 0 2500 0 0 2500 0 2500 -2500 0 -2500 0 0
-2500z m1074 1040 c4 -4 8 -28 8 -51 -1 -33 2 -40 10 -29 8 12 9 11 4 -4 -6
-19 20 -126 33 -136 3 -3 12 -18 19 -33 7 -15 17 -25 22 -22 5 3 7 0 4 -8 -3
-8 0 -18 7 -23 8 -5 10 -3 4 6 -5 9 -4 11 4 6 6 -4 9 -11 6 -16 -3 -5 8 -23
24 -41 24 -26 33 -30 44 -21 11 9 14 8 14 -3 0 -8 -5 -11 -11 -8 -6 3 5 -9 24
-26 47 -42 147 -90 197 -93 23 -2 39 -6 36 -10 -2 -5 12 -8 31 -8 19 0 38 -4
41 -10 12 -19 17 -510 6 -510 -6 0 -11 4 -11 9 0 4 -23 2 -52 -5 -59 -16 -81
-18 -75 -6 3 4 -19 7 -48 6 -30 0 -52 3 -49 8 5 8 -20 11 -84 11 -19 0 -29 3
-23 7 7 4 2 11 -13 19 -13 8 -30 10 -37 6 -8 -5 -10 -4 -5 4 4 6 0 14 -11 17
-38 13 -82 35 -88 44 -3 6 -13 10 -22 10 -13 0 -15 -8 -9 -52 4 -29 8 -82 10
-118 5 -98 5 -102 15 -95 6 3 8 -4 5 -17 -2 -13 9 -49 25 -83 34 -68 127 -178
143 -169 6 4 8 3 5 -3 -7 -11 28 -40 81 -67 24 -12 37 -14 51 -6 30 15 39 11
11 -5 -17 -10 -20 -15 -10 -16 8 -1 20 -3 25 -3 6 -1 16 -5 23 -9 7 -5 12 -3
12 5 0 10 2 10 9 -1 5 -7 21 -13 35 -13 15 0 29 -4 32 -9 8 -14 114 -10 178 6
93 24 212 85 166 85 -6 0 -8 5 -4 11 5 8 9 8 14 -1 10 -16 63 17 56 35 -2 6 0
18 6 26 8 11 9 10 4 -4 -8 -26 6 -20 34 16 14 17 19 28 13 24 -7 -5 -13 -4
-13 2 0 5 5 13 11 16 6 4 8 14 5 22 -4 8 -1 11 5 8 6 -4 8 -14 5 -24 -4 -11
-2 -10 10 4 24 31 38 59 25 51 -7 -4 -9 -1 -5 8 3 9 11 14 17 13 6 -1 12 3 12
8 1 6 7 24 14 40 8 17 17 39 22 50 5 11 8 27 7 35 -1 8 0 33 1 55 1 35 3 37
13 21 10 -18 12 -18 23 -3 10 15 41 17 245 17 128 1 236 -2 241 -7 13 -14 13
-36 -1 -158 -8 -66 -14 -126 -13 -132 0 -7 -3 -11 -7 -8 -4 2 -13 -15 -20 -38
-7 -23 -23 -64 -36 -90 -14 -26 -22 -53 -18 -59 4 -6 3 -8 -4 -4 -11 7 -28
-30 -23 -53 1 -7 -2 -10 -7 -7 -11 7 -34 -17 -30 -32 2 -6 -13 -26 -32 -44
-19 -19 -62 -63 -95 -99 -81 -88 -231 -199 -268 -199 -4 0 -17 -8 -28 -19 -11
-10 -59 -28 -107 -41 -48 -12 -92 -26 -98 -31 -13 -11 -159 -21 -289 -21 -104
0 -192 11 -258 32 -22 6 -45 9 -53 6 -8 -3 -14 0 -14 7 0 7 -8 13 -17 14 -23
1 -85 25 -99 38 -6 6 -30 19 -53 29 -22 11 -41 23 -41 28 0 4 -6 8 -12 8 -7 0
-27 14 -45 30 -18 17 -35 30 -38 30 -4 0 -30 24 -58 53 -27 28 -54 51 -59 49
-4 -1 -8 5 -8 14 0 8 -4 13 -9 9 -5 -3 -12 3 -15 12 -3 10 -22 35 -41 56 -19
21 -35 45 -35 53 0 8 -4 14 -10 14 -5 0 -12 11 -16 25 -3 14 -10 23 -14 20 -4
-3 -11 6 -14 20 -4 14 -11 25 -17 25 -6 0 -7 5 -4 10 3 6 -4 14 -17 19 -18 8
-19 10 -5 10 17 1 17 2 -1 29 -11 15 -21 32 -22 37 -6 37 -25 93 -29 90 -10
-6 -12 60 -16 688 -3 340 -7 623 -11 628 -3 5 4 13 15 17 27 10 504 3 515 -8z
m1735 -2 c6 10 60 13 247 12 147 0 240 -4 242 -10 2 -6 8 -8 13 -4 12 7 11
-10 -2 -23 -7 -7 -9 -188 -7 -574 4 -535 5 -567 24 -617 11 -29 24 -49 28 -45
5 4 6 3 2 -4 -8 -15 41 -96 54 -88 5 3 12 0 16 -6 4 -8 3 -9 -4 -5 -21 12 -13
-12 8 -27 11 -8 17 -17 13 -20 -6 -6 11 -11 29 -8 4 0 5 -5 3 -12 -11 -28 181
-128 252 -130 18 -1 33 -5 33 -9 0 -4 39 -8 88 -8 48 0 121 -6 162 -12 41 -6
90 -11 108 -11 18 0 27 -4 21 -8 -12 -7 46 -25 69 -20 6 1 12 -2 12 -7 0 -13
50 -33 62 -26 7 4 8 2 4 -4 -4 -7 -1 -12 6 -12 7 0 43 -20 80 -45 37 -25 72
-45 78 -45 5 0 10 -5 10 -11 0 -6 10 -8 23 -5 12 3 16 3 9 0 -9 -4 12 -31 62
-81 42 -42 76 -82 76 -89 0 -8 4 -14 9 -14 5 0 22 -18 39 -40 16 -22 33 -36
37 -32 5 4 5 2 1 -5 -3 -6 1 -16 10 -21 10 -6 14 -14 9 -22 -6 -10 -10 -9 -17
4 -13 22 -28 20 -28 -4 0 -24 -25 -37 -43 -22 -7 6 -53 10 -102 10 -225 -2
-849 4 -859 8 -6 2 -31 6 -55 8 -24 2 -47 9 -51 16 -4 7 -13 9 -19 5 -7 -4
-17 -3 -24 2 -7 5 -32 15 -57 22 -59 16 -120 42 -120 52 0 4 -13 10 -30 14
-16 4 -30 11 -30 17 0 6 -11 8 -24 6 -16 -3 -23 -1 -20 7 3 7 -16 26 -43 43
-26 17 -57 39 -68 50 -12 10 -26 17 -32 15 -6 -2 -14 5 -18 16 -3 10 -13 25
-23 33 -16 12 -16 11 -2 -7 14 -19 14 -19 -3 -6 -9 8 -15 16 -12 19 7 8 -36
52 -45 47 -4 -3 -14 3 -21 13 -13 15 -12 16 4 3 9 -7 17 -9 17 -3 0 15 -26 33
-35 24 -5 -4 -5 -1 -1 6 5 8 0 22 -11 35 -24 28 -55 77 -48 77 3 0 -3 8 -12
18 -10 11 -22 17 -27 14 -5 -3 -6 0 -3 5 6 10 -6 43 -37 103 -7 14 -18 24 -25
22 -7 -1 -10 2 -6 8 3 6 11 7 17 4 8 -5 9 -1 4 12 -5 10 -13 37 -18 59 -5 22
-12 47 -15 55 -26 69 -42 775 -26 1144 5 138 8 156 20 140 11 -15 16 -16 22
-6z m517 -46 c-18 -16 -18 -16 -6 6 6 13 14 21 18 18 3 -4 -2 -14 -12 -24z
m-2136 -192 c0 -5 -2 -10 -4 -10 -3 0 -8 5 -11 10 -3 6 -1 10 4 10 6 0 11 -4
11 -10z m85 -70 c-3 -5 -12 -10 -18 -10 -7 0 -6 4 3 10 19 12 23 12 15 0z m80
-110 c-3 -5 -12 -10 -18 -10 -7 0 -6 4 3 10 19 12 23 12 15 0z m1315 -610 c0
-5 -7 -10 -16 -10 -8 0 -12 5 -9 10 3 6 10 10 16 10 5 0 9 -4 9 -10z m677 -62
c-3 -8 -6 -5 -6 6 -1 11 2 17 5 13 3 -3 4 -12 1 -19z m-1890 6 c-3 -3 -12 -4
-19 -1 -8 3 -5 6 6 6 11 1 17 -2 13 -5z m640 -86 c-3 -8 -6 -5 -6 6 -1 11 2
17 5 13 3 -3 4 -12 1 -19z m644 -69 c-5 -13 -10 -19 -10 -12 -1 15 10 45 15
40 3 -2 0 -15 -5 -28z m-730 -56 c-12 -20 -14 -14 -5 12 4 9 9 14 11 11 3 -2
0 -13 -6 -23z m-761 -68 c7 -9 8 -15 2 -15 -5 0 -12 7 -16 15 -3 8 -4 15 -2
15 2 0 9 -7 16 -15z m-17 -19 c4 -10 1 -13 -9 -9 -15 6 -19 23 -5 23 5 0 11
-7 14 -14z m102 -46 c-3 -5 -12 -10 -18 -10 -7 0 -6 4 3 10 19 12 23 12 15 0z
m2250 -38 c-3 -3 -11 0 -18 7 -9 10 -8 11 6 5 10 -3 15 -9 12 -12z m-762 -17
c-3 -9 -8 -14 -10 -11 -3 3 -2 9 2 15 9 16 15 13 8 -4z m-1053 -35 c-12 -8
-12 -10 -1 -10 8 0 12 -3 8 -6 -9 -9 -28 6 -22 17 4 5 12 9 18 9 7 0 6 -4 -3
-10z m1900 -4 c-6 -6 -18 -5 -32 1 -21 10 -21 10 9 9 19 -1 28 -5 23 -10z
m-2177 -3 c-7 -2 -21 -2 -30 0 -10 3 -4 5 12 5 17 0 24 -2 18 -5z m2244 -19
c-3 -3 -12 -4 -19 -1 -8 3 -5 6 6 6 11 1 17 -2 13 -5z m483 -50 c0 -2 -7 -4
-15 -4 -8 0 -15 4 -15 10 0 5 7 7 15 4 8 -4 15 -8 15 -10z m-1670 -14 c-6 -11
-13 -20 -16 -20 -2 0 0 9 6 20 6 11 13 20 16 20 2 0 0 -9 -6 -20z m1667 -6
c-3 -3 -12 -4 -19 -1 -8 3 -5 6 6 6 11 1 17 -2 13 -5z m133 -64 c0 -10 -38 -1
-45 10 -2 4 7 5 20 2 14 -2 25 -8 25 -12z m-1870 -16 c0 -8 -19 -13 -24 -6 -3
5 1 9 9 9 8 0 15 -2 15 -3z m2061 -81 c13 -16 12 -17 -3 -4 -17 13 -22 21 -14
21 2 0 10 -8 17 -17z m-2165 -18 c-3 -8 0 -15 6 -15 6 0 9 -3 5 -6 -10 -11
-26 6 -20 21 3 8 7 15 10 15 3 0 3 -7 -1 -15z m2334 -120 c11 -13 10 -14 -4
-9 -9 3 -16 10 -16 15 0 13 6 11 20 -6z m-2485 -35 c3 -5 -1 -10 -9 -10 -9 0
-16 5 -16 10 0 6 4 10 9 10 6 0 13 -4 16 -10z m-1171 -19 c4 -5 -3 -7 -14 -4
-23 6 -26 13 -6 13 8 0 17 -4 20 -9z m3656 -17 c0 -8 -19 -13 -24 -6 -3 5 1 9
9 9 8 0 15 -2 15 -3z m-3340 -114 c8 -5 11 -10 5 -10 -5 0 -17 5 -25 10 -8 5
-10 10 -5 10 6 0 17 -5 25 -10z m2197 4 c-3 -3 -12 -4 -19 -1 -8 3 -5 6 6 6
11 1 17 -2 13 -5z m63 -28 c0 -2 -9 -6 -20 -9 -11 -3 -18 -1 -14 4 5 9 34 13
34 5z"/>
<path d="M2469 1883 c-13 -16 -12 -17 4 -4 9 7 17 15 17 17 0 8 -8 3 -21 -13z"/>
</g>
</svg>
